<?xml version="1.0" encoding="iso-8859-1"?>
<!-- Generator: Adobe Illustrator 24.1.2, SVG Export Plug-In . SVG Version: 6.00 Build 0)  -->
<svg version="1.1" baseProfile="basic" id="Layer_1"
	 xmlns="http://www.w3.org/2000/svg" xmlns:xlink="http://www.w3.org/1999/xlink" x="0px" y="0px" viewBox="0 0 64 64"
	 xml:space="preserve">
<path d="M41.319,54H22.681c-3.096,0-5.723-2.417-5.979-5.502l-2.694-32.332l3.986-0.332l2.694,32.332
	C20.773,49.194,21.648,50,22.681,50h18.639c1.032,0,1.907-0.806,1.993-1.834l2.694-32.332l3.986,0.332l-2.694,32.332
	C47.042,51.583,44.415,54,41.319,54z"/>
<path d="M26,13c0-1.105,0.895-2,2-2h8c1.105,0,2,0.895,2,2v3H26V13z"/>
<path d="M51,18H13c-1.104,0-2-0.896-2-2s0.896-2,2-2h38c1.104,0,2,0.896,2,2S52.104,18,51,18z"/>
</svg>